<?xml version="1.0" encoding="utf-8"?>
<!-- Generator: Adobe Illustrator 21.0.2, SVG Export Plug-In . SVG Version: 6.00 Build 0)  -->
<svg version="1.1" id="Layer_1" xmlns="http://www.w3.org/2000/svg" xmlns:xlink="http://www.w3.org/1999/xlink" x="0px" y="0px"
	 viewBox="0 0 596 32" style="enable-background:new 0 0 596 32;" xml:space="preserve">
<style type="text/css">
	.st0{fill:#D0D0D0;}
	.st1{fill:#FFFFFF;}
</style>
<path class="st0" d="M591.4,0H4.6C2.1,0,0,2.1,0,4.6V19v8.4V32h4.6h586.7h4.6v-4.6V19V4.6C596,2.1,593.9,0,591.4,0z"/>
<circle class="st1" cx="24.5" cy="15.5" r="3.5"/>
<circle class="st1" cx="12.5" cy="15.5" r="3.5"/>
<circle class="st1" cx="36.5" cy="15.5" r="3.5"/>
<path class="st1" d="M585,22H50c-1.7,0-3-1.4-3-3v-6c0-1.6,1.3-3,3-3h535c1.7,0,3,1.4,3,3v6C588,20.6,586.7,22,585,22z"/>
</svg>
